<?xml version="1.0" encoding="UTF-8" standalone="no"?>
<!-- Created with Inkscape (http://www.inkscape.org/) -->

<svg
   width="100"
   height="20"
   viewBox="0 0 26.458334 5.2916665"
   version="1.1"
   id="svg5"
   sodipodi:docname="drawing.svg"
   inkscape:version="1.1.2 (b8e25be833, 2022-02-05)"
   xmlns:inkscape="http://www.inkscape.org/namespaces/inkscape"
   xmlns:sodipodi="http://sodipodi.sourceforge.net/DTD/sodipodi-0.dtd"
   xmlns="http://www.w3.org/2000/svg"
   xmlns:svg="http://www.w3.org/2000/svg">
  <sodipodi:namedview
     id="namedview7"
     pagecolor="#505050"
     bordercolor="#ffffff"
     borderopacity="1"
     inkscape:pageshadow="0"
     inkscape:pageopacity="0"
     inkscape:pagecheckerboard="1"
     inkscape:document-units="px"
     showgrid="false"
     inkscape:zoom="10.248373"
     inkscape:cx="45.129116"
     inkscape:cy="-20.588635"
     inkscape:window-width="1920"
     inkscape:window-height="1137"
     inkscape:window-x="-8"
     inkscape:window-y="-8"
     inkscape:window-maximized="1"
     inkscape:current-layer="layer1"
     units="px"
     width="100px" />
  <defs
     id="defs2" />
  <g
     inkscape:label="Layer 1"
     inkscape:groupmode="layer"
     id="layer1">
    <path
       style="fill:#ffffff;fill-opacity:1;stroke-width:13.22899996;stop-color:#000000;stroke:none;stroke-miterlimit:4;stroke-dasharray:none"
       d="M 0,4.57658 C 0.979938,4.5236 1.95988,4.46477 2.93981,4.39863 3.91975,4.33248 4.89969,4.259 5.87963,4.1764 6.85957,4.09379 7.83951,4.00202 8.81944,3.89886 9.79938,3.7957 10.7793,3.68109 11.7593,3.55226 12.7392,3.42343 13.7191,3.2803 14.6991,3.11941 15.679,2.95853 16.659,2.77978 17.6389,2.57885 18.6188,2.37793 19.5988,2.1547 20.5787,1.90377 c 0.9799,-0.25093 1.9599,-0.5297 2.9398,-0.84307 0.98,-0.313373 1.9599,-0.661522 2.9398,-1.05287406 l 3.3e-5,5.28384066 -26.458333,0 z"
       title="exp(x)/10"
       id="path1888"
       sodipodi:nodetypes="cccscccsccccc" />
  </g>
</svg>
