<?xml version="1.0" encoding="UTF-8" standalone="no"?>
<svg
   version="1.1"
   width="800"
   height="800"
   id="svg984"
   sodipodi:docname="lines.svg"
   inkscape:version="1.1.2 (b8e25be833, 2022-02-05)"
   xmlns:inkscape="http://www.inkscape.org/namespaces/inkscape"
   xmlns:sodipodi="http://sodipodi.sourceforge.net/DTD/sodipodi-0.dtd"
   xmlns:xlink="http://www.w3.org/1999/xlink"
   xmlns="http://www.w3.org/2000/svg"
   xmlns:svg="http://www.w3.org/2000/svg">
  <sodipodi:namedview
     id="namedview986"
     pagecolor="#505050"
     bordercolor="#ffffff"
     borderopacity="1"
     inkscape:pageshadow="0"
     inkscape:pageopacity="0"
     inkscape:pagecheckerboard="1"
     showgrid="false"
     inkscape:zoom="1.1075"
     inkscape:cx="399.54853"
     inkscape:cy="400"
     inkscape:window-width="1920"
     inkscape:window-height="1137"
     inkscape:window-x="-8"
     inkscape:window-y="-8"
     inkscape:window-maximized="1"
     inkscape:current-layer="expressions-8b0b723f" />
  <defs
     id="defs906">
    <linearGradient
       inkscape:collect="always"
       id="linearGradient2277">
      <stop
         style="stop-color:#011fff;stop-opacity:1;"
         offset="0"
         id="stop2273" />
      <stop
         style="stop-color:#011fff;stop-opacity:0;"
         offset="1"
         id="stop2275" />
    </linearGradient>
    <linearGradient
       inkscape:collect="always"
       xlink:href="#linearGradient2277"
       id="linearGradient2279"
       x1="264.16667"
       y1="202"
       x2="402.5"
       y2="202"
       gradientUnits="userSpaceOnUse" />
  </defs>
  <g
     transform="scale(2,2)"
     id="g982">
    <g
       id="graphpaper-8b0b723f">
      <g
         id="axis-8b0b723f">
        <g
           id="g915">
          <g
             id="g913">
            <path
               fill="none"
               stroke="rgb(0,0,0)"
               class="dcg-svg-tickmark"
               paint-order="fill stroke markers"
               d=""
               stroke-opacity="0.9"
               stroke-miterlimit="2"
               stroke-width="2"
               stroke-dasharray=""
               id="path911" />
          </g>
        </g>
      </g>
    </g>
    <g
       id="expressions-8b0b723f">
      <g
         id="sketch-8b0b723f"
         style="stroke:#9501ff;stroke-opacity:1">
        <title
           id="title919"
           style="stroke:url(#linearGradient2279)">Expression 7</title>
        <path
           fill="#388c46"
           stroke="none"
           paint-order="stroke fill markers"
           d=""
           fill-opacity="0.4"
           id="path921"
           style="stroke:#9501ff;stroke-opacity:1" />
        <g
           id="g925"
           style="stroke:#9501ff;stroke-opacity:1">
          <path
             fill="none"
             stroke="#388c46"
             class="dcg-svg-curve"
             paint-order="fill stroke markers"
             d=" M 266.6666666666667 399.99999999999983 L 266.6666666666667 399.99999999999983 L 269.1068814055637 367.6687937348813 L 271.5470961444607 337.95085471615744 L 273.9873108833578 310.6349577379045 L 276.4275256222547 285.5269505084535 L 278.8677403611518 262.44837368060564 L 281.3079551000488 241.2351924220742 L 283.7481698389458 221.73663051056556 L 286.1883845778429 203.81409866664168 L 288.6285993167399 187.34020950731565 L 291.0688140556368 172.19787211898705 L 293.5090287945339 158.27945981425336 L 295.9492435334309 145.48604515728778 L 298.48706686188376 133.27662559973749 L 301.02489019033663 122.09183988779853 L 303.5627135187895 111.84569912473228 L 306.1005368472425 102.4594307383378 L 308.63836017569537 93.86087287555648 L 311.27379209370423 85.69453172260256 L 313.909224011713 78.23870098557927 L 316.6422645192776 71.19115247283571 L 319.37530502684234 64.77842968462244 L 322.20595412396284 58.74496906889897 L 325.13421181063933 53.094167326413185 L 328.1600780868716 47.82542301298946 L 331.2835529526598 42.93452841383436 L 334.50463640800393 38.414080771072975 L 337.9209370424597 34.138617974189174 L 341.33723767691555 30.339011471680237 L 344.8511469009272 26.87155431638115 L 348.3650561249389 23.80039415760939 L 351.97657393850653 21.009290309280686 L 355.68570034163 18.483086083236174 L 359.59004392386527 16.151368746160813 L 363.6896046852124 14.018964017783844 L 367.984382625671 12.086324547509662 L 372.5719863347975 10.315260410987435 L 377.4524158125915 8.715127681282354 L 382.723279648609 7.2645847818933476 L 388.4821864324061 5.954251775546254 L 394.8267447535383 4.7825423012989745 L 399.99999999999994 4"
             stroke-linecap="round"
             stroke-linejoin="round"
             stroke-miterlimit="10"
             stroke-width="5"
             stroke-dasharray=""
             id="path923"
             style="stroke:#9501ff;stroke-opacity:1" />
        </g>
      </g>
      <g
         id="g936"
         style="stroke:#011fff;stroke-opacity:1">
        <title
           id="title928">Expression 8</title>
        <path
           fill="#6042a6"
           stroke="none"
           paint-order="stroke fill markers"
           d=""
           fill-opacity="0.4"
           id="path930"
           style="stroke:#011fff;stroke-opacity:1" />
        <g
           id="g934"
           style="stroke:#011fff;stroke-opacity:1">
          <path
             fill="none"
             stroke="#6042a6"
             class="dcg-svg-curve"
             paint-order="fill stroke markers"
             d=" M 199.95827768245385 399.9999999999999 L 199.95827768245385 399.9999999999999 L 202.39900147842195 367.6623293623752 L 204.83972527439005 337.9389710804191 L 207.28044907035815 310.61857322437857 L 209.7211728663263 285.5068704372314 L 212.1618966622944 262.4253025847858 L 214.60262045826238 241.2097450798717 L 217.0433442542306 221.7093418524259 L 219.48406805019874 203.7854326671551 L 221.92479184616684 187.3105671613143 L 224.36551564213494 172.16759859179112 L 226.80623943810303 158.248850847461 L 229.24696323407113 145.45535280374148 L 231.78531598187794 133.24607250426607 L 234.32366872968475 122.06161887880296 L 236.86202147749162 111.8159696814862 L 239.40037422529838 102.43032323064085 L 241.93872697310525 93.83249232663718 L 244.5747086727509 85.66699368848617 L 247.2106903723964 78.21207372469843 L 249.94430102388066 71.16552231921804 L 252.6779116753649 64.75383308201174 L 255.50915127868797 58.721465735226786 L 258.43801983384964 53.07180507243163 L 261.46451734085014 47.80423761755321 L 264.58864379968935 42.91454374273627 L 266.6666666666666 39.94240000000002 L 269.47009139162554 69.82500599178724 L 272.2037020431098 96.87434195999163 L 274.937312694594 121.95089817795542 L 277.57329439423967 144.3550348835948 L 280.2092760938852 165.1078793016432 L 282.84525779353083 184.30346155870163 L 285.48123949317636 202.03589750853698 L 288.1172211928219 218.39800481643366 L 290.7532028924674 233.48026861512207 L 293.38918459211294 247.3700881665368 L 296.0251662917586 260.1512482805049 L 298.6611479914041 271.9035694293239 L 301.29712969104963 282.70269891739963 L 303.9331113906953 292.62001241809173 L 306.5690930903408 301.7226009256658 L 309.2050747899863 310.0733228965953 L 311.9386854414707 318.00193403366313 L 314.6722960929549 325.24604631249406 L 317.5035356962779 332.0875425196322 L 320.33477529960095 338.31345031779665 L 323.26364385476273 344.1631373307003 L 326.2901413617631 349.6335531878253 L 329.41426782060233 354.7256646302747 L 332.63602323128026 359.4440703326204 L 336.0530365456355 363.917342232859 L 339.47004985999087 367.90136186844796 L 342.98469212618494 371.5441800235636 L 346.4993343923791 374.7762826391918 L 350.1116056104118 377.7182257848811 L 353.8215057802834 380.3846991051731 L 357.62903490199363 382.791357398323 L 361.6318219273813 385.0049563103604 L 365.8298668564465 387.022289161292 L 370.3207986410278 388.88172149724176 L 375.1046172811252 390.571017295407 L 380.1813227767389 392.08448063475197 L 385.7461730315462 393.46632852427035 L 391.7991680455471 394.6973077574929 L 398.5355657224191 395.7968963734376 L 399.99999999999994 396.00399424"
             stroke-linecap="round"
             stroke-linejoin="round"
             stroke-miterlimit="10"
             stroke-width="5"
             stroke-dasharray=""
             id="path932"
             style="stroke:#011fff;stroke-opacity:1" />
        </g>
      </g>
      <g
         id="g946"
         style="stroke:#01ff02;stroke-opacity:1">
        <title
           id="title938">Expression 9</title>
        <path
           fill="#000000"
           stroke="none"
           paint-order="stroke fill markers"
           d=""
           fill-opacity="0.4"
           id="path940"
           style="stroke:#01ff02;stroke-opacity:1" />
        <g
           id="g944"
           style="stroke:#01ff02;stroke-opacity:1">
          <path
             fill="none"
             stroke="#000000"
             class="dcg-svg-curve"
             paint-order="fill stroke markers"
             d=" M 133.33333333333331 399.9999999999999 L 133.33333333333331 399.9999999999999 L 135.7742302776992 367.6601306254968 L 138.21512722206512 337.9349291288935 L 140.656024166431 310.61300046611746 L 143.09692111079687 285.5000408133756 L 145.5378180551628 262.4174557475759 L 147.97871499952868 241.2010901464106 L 150.41961194389455 221.700060775604 L 152.86050888826043 203.77568326109792 L 155.30140583262636 187.30048581518784 L 157.74230277699223 172.1573027025774 L 160.18319972135816 158.238440999407 L 162.62409666572398 145.44491471954242 L 165.16262948786454 133.2356819073051 L 167.7011623100051 122.05134134483018 L 170.23969513214558 111.80585944263862 L 172.77822795428614 102.42042461777953 L 175.31676077642663 93.82284104947172 L 177.9529294763418 85.6576290416354 L 180.58909817625693 78.20301891269298 L 183.32290275394678 71.15680669648202 L 186.05670733163657 64.7454690322536 L 188.888147787101 58.7134735596905 L 191.8172241203401 53.06420102209114 L 194.8439363313538 47.79703385088368 L 197.96828442014208 42.90774836632221 L 199.95827768245385 40.05768306361159 L 202.75244243109933 69.82496796763769 L 205.48624700878906 96.86663647912496 L 208.22005158647892 121.93774747994075 L 210.85622028639403 144.3382831279617 L 213.4923889863092 165.08879007403004 L 216.12855768622438 184.28301481804664 L 218.7647263861395 202.0148447830972 L 221.40089508605467 218.37691433456996 L 224.03706378596985 233.45956214567082 L 226.67323248588497 247.35007103632165 L 229.30940118580014 260.1321337819087 L 231.94556988571526 271.88549861991976 L 234.58173858563055 282.6857566389317 L 237.21790728554572 292.6042402174557 L 239.85407598546084 301.7080074408199 L 242.490244685376 310.05989217127257 L 245.22404926306575 317.98967311994727 L 247.9578538407556 325.23490466092966 L 250.78929429622002 332.07749686682547 L 253.62073475168444 338.304430154972 L 256.54981108492353 344.15510058128416 L 259.5765232959372 349.62644919248635 L 262.70087138472564 354.71943605906466 L 265.92285535128855 359.43865504901675 L 266.8015782512603 360.8219878356449 L 268.7542958067531 365.74329854009517 L 270.7070133622456 370.0477153783457 L 272.75736679551306 373.9876384782357 L 274.9053561065551 377.5615058678906 L 277.15098129537165 380.77481283341 L 279.5918782397376 383.74863791120424 L 282.0327751841034 386.26309366685035 L 284.5713080062439 388.46683259386583 L 287.20747670615907 390.38236624648664 L 289.9412812838489 392.03386807680226 L 292.870357617088 393.4902690666741 L 296.09234158365103 394.7869816827904 L 299.60723318353786 395.90906284571275 L 303.5126682945233 396.8751012461392 L 308.00391867215654 397.7076882196434 L 313.2762560719868 398.4067740773818 L 319.62258812733813 398.9718449551232 L 327.62873010485833 399.4083797157912 L 333.29161101578717 399.599824323857"
             stroke-linecap="round"
             stroke-linejoin="round"
             stroke-miterlimit="10"
             stroke-width="5"
             stroke-dasharray=""
             id="path942"
             style="stroke:#01ff02;stroke-opacity:1" />
        </g>
      </g>
      <g
         id="g956"
         style="stroke:#eeff01;stroke-opacity:1">
        <title
           id="title948">Expression 10</title>
        <path
           fill="#c74440"
           stroke="none"
           paint-order="stroke fill markers"
           d=""
           fill-opacity="0.4"
           id="path950"
           style="stroke:#eeff01;stroke-opacity:1" />
        <g
           id="g954"
           style="stroke:#eeff01;stroke-opacity:1">
          <path
             fill="none"
             stroke="#c74440"
             class="dcg-svg-curve"
             paint-order="fill stroke markers"
             d=" M 66.62494434912048 399.99999999999983 L 66.62494434912048 399.99999999999983 L 69.06566814508858 367.6623293623754 L 71.50639194105673 337.9389710804194 L 73.94711573702483 310.6185732243787 L 76.38783953299293 285.5068704372315 L 78.82856332896102 262.425302584786 L 81.26928712492912 241.20974507987162 L 83.71001092089722 221.7093418524259 L 86.15073471686537 203.7854326671551 L 88.59145851283347 187.3105671613143 L 91.03218230880157 172.16759859179112 L 93.47290610476966 158.24885084746097 L 95.91362990073776 145.45535280374153 L 98.45198264854463 133.24607250426607 L 100.99033539635144 122.06161887880296 L 103.52868814415831 111.8159696814862 L 106.06704089196512 102.4303232306408 L 108.60539363977193 93.83249232663718 L 111.24137533941746 85.66699368848623 L 113.87735703906304 78.21207372469843 L 116.61096769054734 71.16552231921804 L 119.34457834203164 64.75383308201168 L 122.1758179453546 58.721465735226786 L 125.10468650051632 53.07180507243157 L 128.13118400751682 47.80423761755321 L 131.25531046635598 42.91454374273627 L 133.33333333333331 39.94240000000002 L 136.13675805829217 69.82500599178724 L 138.87036870977653 96.87434195999157 L 141.60397936126077 121.95089817795542 L 144.23996106090635 144.3550348835948 L 146.87594276055188 165.1078793016433 L 149.5119244601974 184.30346155870163 L 152.147906159843 202.0358975085369 L 154.78388785948857 218.39800481643366 L 157.4198695591341 233.48026861512201 L 160.05585125877968 247.37008816653685 L 162.69183295842527 260.1512482805049 L 165.3278146580708 271.9035694293239 L 167.96379635771632 282.70269891739974 L 170.5997780573619 292.62001241809173 L 173.23575975700743 301.7226009256658 L 175.871741456653 310.0733228965953 L 178.6053521081373 318.00193403366313 L 181.3389627596216 325.24604631249406 L 184.17020236294456 332.08754251963217 L 187.00144196626758 338.31345031779665 L 189.9303105214293 344.16313733070024 L 192.9568080284298 349.6335531878253 L 196.08093448726896 354.7256646302747 L 199.30268989794683 359.4440703326204 L 200.08372151265667 360.68333510843604 L 202.03630054943113 365.6217277057517 L 203.98887958620566 369.94112762115077 L 206.03908757481884 373.8948047539013 L 208.1869245152708 377.48118602520395 L 210.4323904075614 380.7057798248145 L 212.8731142035295 383.690085464012 L 215.31383799949765 386.21343362082257 L 217.85219074730452 388.42499354756933 L 220.48817244695 390.3473501366054 L 223.2217830984343 392.0047565829684 L 226.15065165359607 393.4663851822507 L 229.372407064274 394.76777203927895 L 232.88704933046807 395.8939167120427 L 236.79220740401706 396.86347127802594 L 241.28313918859828 397.69910593513924 L 246.4574736360508 398.3899568570098 L 252.7057265537291 398.9539332194037 L 260.6136716526657 399.3939769109583 L 266.6666666666666 399.6009748488294"
             stroke-linecap="round"
             stroke-linejoin="round"
             stroke-miterlimit="10"
             stroke-width="5"
             stroke-dasharray=""
             id="path952"
             style="stroke:#eeff01;stroke-opacity:1" />
        </g>
      </g>
      <g
         id="g966"
         style="stroke:#ff7301;stroke-opacity:1">
        <title
           id="title958">Expression 11</title>
        <path
           fill="#2d70b3"
           stroke="none"
           paint-order="stroke fill markers"
           d=""
           fill-opacity="0.4"
           id="path960"
           style="stroke:#ff7301;stroke-opacity:1" />
        <g
           id="g964"
           style="stroke:#ff7301;stroke-opacity:1">
          <path
             fill="none"
             stroke="#2d70b3"
             class="dcg-svg-curve"
             paint-order="fill stroke markers"
             d=" M 0 400 L 0 400 L 2.440896944365875 367.6601306254968 L 4.88179388873175 337.9349291288934 L 7.322690833097624 310.6130004661174 L 9.763587777463556 285.5000408133757 L 12.20448472182943 262.4174557475758 L 14.645381666195362 241.20109014641068 L 17.08627861056118 221.70006077560402 L 19.527175554927112 203.77568326109792 L 21.968072499292987 187.30048581518776 L 24.40896944365892 172.1573027025774 L 26.849866388024793 158.238440999407 L 29.290763332390668 145.44491471954234 L 31.82929615453122 133.2356819073051 L 34.367828976671774 122.05134134483029 L 36.90636179881227 111.80585944263856 L 39.44489462095282 102.42042461777953 L 41.98342744309332 93.82284104947178 L 44.61959614300844 85.65762904163546 L 47.25576484292367 78.20301891269298 L 49.98956942061346 71.15680669648202 L 52.7233739983032 64.7454690322536 L 55.554814453767676 58.7134735596905 L 58.483890787006715 53.06420102209108 L 61.51060299802043 47.79703385088368 L 64.63495108680883 42.90774836632221 L 66.62494434912048 40.05768306361165 L 69.41910909776595 69.8249679676378 L 72.15291367545575 96.86663647912502 L 74.88671825314549 121.93774747994075 L 77.52288695306072 144.3382831279617 L 80.1590556529759 165.08879007403002 L 82.79522435289101 184.28301481804664 L 85.43139305280619 202.0148447830972 L 88.0675617527213 218.37691433456993 L 90.70373045263653 233.4595621456708 L 93.33989915255171 247.3500710363217 L 95.97606785246683 260.1321337819087 L 98.612236552382 271.88549861991976 L 101.24840525229712 282.6857566389317 L 103.88457395221235 292.6042402174557 L 106.52074265212752 301.7080074408199 L 109.15691135204264 310.0598921712725 L 111.89071592973244 317.98967311994727 L 114.62452050742229 325.2349046609296 L 117.45596096288665 332.07749686682547 L 120.28740141835112 338.304430154972 L 123.21647775159016 344.15510058128416 L 126.24318996260388 349.62644919248635 L 129.36753805139222 354.71943605906466 L 132.58952201795518 359.43865504901675 L 133.46824491792694 360.8219878356449 L 135.42096247341965 365.7432985400951 L 137.37368002891236 370.04771537834563 L 139.4240334621797 373.9876384782357 L 141.5720227732217 377.56150586789056 L 143.81764796203828 380.77481283341 L 146.2585449064042 383.74863791120424 L 148.69944185077009 386.26309366685035 L 151.23797467291058 388.46683259386583 L 153.8741433728258 390.38236624648664 L 156.60794795051555 392.03386807680226 L 159.53702428375465 393.4902690666741 L 162.75900825031766 394.7869816827904 L 166.2738998502045 395.90906284571275 L 170.17933496118997 396.8751012461392 L 174.67058533882317 397.7076882196434 L 179.94292273865346 398.4067740773818 L 186.28925479400482 398.9718449551232 L 194.2953967715249 399.4083797157912 L 199.95827768245385 399.599824323857"
             stroke-linecap="round"
             stroke-linejoin="round"
             stroke-miterlimit="10"
             stroke-width="5"
             stroke-dasharray=""
             id="path962"
             style="stroke:#ff7301;stroke-opacity:1" />
        </g>
      </g>
      <g
         id="g976"
         style="stroke:#ff0101;stroke-opacity:1">
        <title
           id="title968">Expression 12</title>
        <path
           fill="#388c46"
           stroke="none"
           paint-order="stroke fill markers"
           d=""
           fill-opacity="0.4"
           id="path970"
           style="stroke:#ff0101;stroke-opacity:1" />
        <g
           id="g974"
           style="stroke:#ff0101;stroke-opacity:1">
          <path
             fill="none"
             stroke="#388c46"
             class="dcg-svg-curve"
             paint-order="fill stroke markers"
             d=" M 0 0 L 0 0 L 2.440214738896998 32.33120626511857 L 4.880429477793996 62.049145283842506 L 7.320644216691051 89.36504226209559 L 9.760858955588049 114.4730494915467 L 12.201073694485103 137.55162631939447 L 14.641288433382101 158.7648075779258 L 17.0815031722791 178.26336948943458 L 19.521717911176154 196.18590133335826 L 21.96193265007321 212.6597904926843 L 24.402147388970207 227.80212788101298 L 26.84236212786726 241.72054018574664 L 29.28257686676426 254.5139548427121 L 31.82040019521719 266.7233744002624 L 34.35822352367006 277.90816011220153 L 36.896046852122936 288.15430087526784 L 39.433870180575866 297.54056926166226 L 41.971693509028796 306.1391271244435 L 44.607125427037545 314.3054682773975 L 47.24255734504635 321.7612990144208 L 49.97559785261103 328.8088475271643 L 52.70863836017571 335.22157031537756 L 55.53928745729621 341.25503093110103 L 58.46754514397264 346.90583267358676 L 61.49341142020495 352.17457698701054 L 64.61688628599313 357.0654715861656 L 66.86188384577838 360.59261279185114 L 68.814055636896 365.56401678511736 L 70.76622742801362 369.90825771543496 L 72.81600780868712 373.88115775512716 L 74.96339677891655 377.4818735695249 L 77.20839433870174 380.7166569944329 L 79.64860907759885 383.70794437370944 L 82.08882381649585 386.2352146900298 L 84.62664714494872 388.4485968235792 L 87.26207906295753 390.3712084557098 L 89.9951195705222 392.0277562364608 L 92.92337725719864 393.487723392284 L 96.04685212298682 394.7515798658687 L 99.5607613469985 395.8827113397001 L 103.46510492923375 396.85601106659294 L 107.95510004880424 397.69441490913545 L 113.12835529526598 398.38718892248335 L 119.37530502684234 398.9524494100815 L 127.2816007808687 399.3932830429676 L 133.33333333333331 399.600576"
             stroke-linecap="round"
             stroke-linejoin="round"
             stroke-miterlimit="10"
             stroke-width="5"
             stroke-dasharray=""
             id="path972"
             style="stroke:#ff0101;stroke-opacity:1" />
        </g>
      </g>
    </g>
    <g
       id="labels-8b0b723f" />
    <g
       id="g980" />
  </g>
</svg>
